<svg width="40" height="40" viewBox="0 0 40 40" fill="none" xmlns="http://www.w3.org/2000/svg">
<g clip-path="url(#clip0_1157_585)">
<g filter="url(#filter0_d_1157_585)">
<path d="M23.3332 3.33333H9.99984C9.11578 3.33333 8.26794 3.68452 7.64281 4.30964C7.01769 4.93476 6.6665 5.78261 6.6665 6.66666V33.3333C6.6665 34.2174 7.01769 35.0652 7.64281 35.6904C8.26794 36.3155 9.11578 36.6667 9.99984 36.6667H29.9998C30.8839 36.6667 31.7317 36.3155 32.3569 35.6904C32.982 35.0652 33.3332 34.2174 33.3332 33.3333V13.3333M23.3332 3.33333L33.3332 13.3333M23.3332 3.33333V13.3333H33.3332M19.9998 30V20M14.9998 25H24.9998" stroke="#1E1E1E" stroke-linecap="round" stroke-linejoin="round" shape-rendering="crispEdges"/>
</g>
</g>
<defs>
<filter id="filter0_d_1157_585" x="2.1665" y="2.83333" width="35.6665" height="42.3333" filterUnits="userSpaceOnUse" color-interpolation-filters="sRGB">
<feFlood flood-opacity="0" result="BackgroundImageFix"/>
<feColorMatrix in="SourceAlpha" type="matrix" values="0 0 0 0 0 0 0 0 0 0 0 0 0 0 0 0 0 0 127 0" result="hardAlpha"/>
<feOffset dy="4"/>
<feGaussianBlur stdDeviation="2"/>
<feComposite in2="hardAlpha" operator="out"/>
<feColorMatrix type="matrix" values="0 0 0 0 0 0 0 0 0 0 0 0 0 0 0 0 0 0 0.25 0"/>
<feBlend mode="normal" in2="BackgroundImageFix" result="effect1_dropShadow_1157_585"/>
<feBlend mode="normal" in="SourceGraphic" in2="effect1_dropShadow_1157_585" result="shape"/>
</filter>
<clipPath id="clip0_1157_585">
<rect width="40" height="40" fill="white"/>
</clipPath>
</defs>
</svg>
