<svg width="48" height="48" viewBox="0 0 48 48" fill="none" xmlns="http://www.w3.org/2000/svg">
<path d="M42.4198 31.78C41.1475 34.789 39.1574 37.4404 36.6236 39.5026C34.0898 41.5648 31.0894 42.9749 27.8847 43.6096C24.68 44.2443 21.3687 44.0843 18.2401 43.1436C15.1116 42.2029 12.2611 40.5101 9.93787 38.2133C7.61466 35.9165 5.88946 33.0855 4.9131 29.9679C3.93674 26.8503 3.73895 23.541 4.33703 20.3293C4.9351 17.1176 6.31082 14.1013 8.34392 11.5441C10.377 8.98686 13.0056 6.96664 15.9998 5.66M43.9998 24C43.9998 21.3736 43.4825 18.7728 42.4774 16.3463C41.4723 13.9198 39.9991 11.715 38.142 9.85786C36.2848 8.00069 34.08 6.5275 31.6535 5.52241C29.227 4.51732 26.6263 4 23.9998 4V24H43.9998Z" stroke="#1E1E1E" stroke-width="4" stroke-linecap="round" stroke-linejoin="round"/>
</svg>
